<svg width="30" height="30" viewBox="0 0 30 30" fill="none" xmlns="http://www.w3.org/2000/svg">
<path d="M7 0C3.13401 0 0 3.13401 0 7V23C0 26.866 3.13401 30 7 30H23C26.866 30 30 26.866 30 23V7C30 3.13401 26.866 0 23 0H7ZM28.2422 21.2422C28.2422 25.1082 25.1082 28.2422 21.2422 28.2422H8.75781C4.89182 28.2422 1.75781 25.1082 1.75781 21.2422V8.75781C1.75781 4.89182 4.89182 1.75781 8.75781 1.75781H21.2422C25.1082 1.75781 28.2422 4.89182 28.2422 8.75781V21.2422Z" fill="#EEE5E9"/>
<path d="M9.72656 10.6055H4.45312V25.5469H9.72656V10.6055ZM7.96875 23.7891H6.21094V12.3633H7.96875V23.7891Z" fill="#EEE5E9"/>
<path d="M7.08984 9.72656C8.5437 9.72656 9.72656 8.5437 9.72656 7.08984C9.72656 5.63599 8.5437 4.45312 7.08984 4.45312C5.63599 4.45312 4.45312 5.63599 4.45312 7.08984C4.45312 8.5437 5.63599 9.72656 7.08984 9.72656ZM7.08984 6.21094C7.57439 6.21094 7.96875 6.6053 7.96875 7.08984C7.96875 7.57439 7.57439 7.96875 7.08984 7.96875C6.6053 7.96875 6.21094 7.57439 6.21094 7.08984C6.21094 6.6053 6.6053 6.21094 7.08984 6.21094Z" fill="#EEE5E9"/>
<path d="M16.7578 17.6367C16.7578 16.6674 17.5463 15.8789 18.5156 15.8789C19.4849 15.8789 20.2734 16.6674 20.2734 17.6367V25.5469H25.5469V17.1973C25.5469 13.5626 22.5897 10.6055 18.9551 10.6055C18.2009 10.6055 17.4591 10.7336 16.7578 10.9818V10.6055H11.4844V25.5469H16.7578V17.6367ZM15 17.6367V23.7891H13.2422V12.3633H15V13.9904L16.3529 13.1239C17.1297 12.6263 18.0297 12.3633 18.9551 12.3633C21.6206 12.3633 23.7891 14.5317 23.7891 17.1973V23.7891H22.0312V17.6367C22.0312 15.6981 20.4543 14.1211 18.5156 14.1211C16.577 14.1211 15 15.6981 15 17.6367Z" fill="#EEE5E9"/>
</svg>
